<mxfile host="app.diagrams.net" modified="2022-01-19T12:28:55.448Z" agent="5.0 (Windows NT 10.0; WOW64) AppleWebKit/537.36 (KHTML, like Gecko) Chrome/80.0.3987.87 Safari/537.36 SE 2.X MetaSr 1.0" etag="P8Xi57sWCuu2HDtxINzN" version="16.3.0" type="github">
  <diagram id="RGCNb0BmkwuMMQMb4ELD" name="Page-1">
    <mxGraphModel dx="1422" dy="747" grid="1" gridSize="10" guides="1" tooltips="1" connect="1" arrows="1" fold="1" page="1" pageScale="1" pageWidth="827" pageHeight="1169" math="0" shadow="0">
      <root>
        <mxCell id="0" />
        <mxCell id="1" parent="0" />
        <mxCell id="x4gcO5bAAS3uo_amFbTj-112" value="欢句Live合规应用架构图" style="swimlane;fillColor=#FFCCE6;" vertex="1" parent="1">
          <mxGeometry x="34" y="60" width="1066" height="720" as="geometry" />
        </mxCell>
        <mxCell id="x4gcO5bAAS3uo_amFbTj-122" value="" style="endArrow=classic;html=1;rounded=0;strokeColor=#000000;strokeWidth=3;elbow=vertical;" edge="1" parent="x4gcO5bAAS3uo_amFbTj-112">
          <mxGeometry width="50" height="50" relative="1" as="geometry">
            <mxPoint x="498" y="129" as="sourcePoint" />
            <mxPoint x="498" y="180" as="targetPoint" />
          </mxGeometry>
        </mxCell>
        <mxCell id="x4gcO5bAAS3uo_amFbTj-123" value="" style="endArrow=classic;html=1;rounded=0;strokeColor=#000000;strokeWidth=3;elbow=vertical;" edge="1" parent="x4gcO5bAAS3uo_amFbTj-112">
          <mxGeometry width="50" height="50" relative="1" as="geometry">
            <mxPoint x="316" y="447" as="sourcePoint" />
            <mxPoint x="316" y="500" as="targetPoint" />
          </mxGeometry>
        </mxCell>
        <mxCell id="x4gcO5bAAS3uo_amFbTj-3" value="展现层" style="swimlane;horizontal=0;" vertex="1" parent="1">
          <mxGeometry x="39" y="90" width="1051" height="100" as="geometry" />
        </mxCell>
        <mxCell id="x4gcO5bAAS3uo_amFbTj-4" value="WEB" style="rounded=1;whiteSpace=wrap;html=1;" vertex="1" parent="x4gcO5bAAS3uo_amFbTj-3">
          <mxGeometry x="181" y="30" width="100" height="45" as="geometry" />
        </mxCell>
        <mxCell id="x4gcO5bAAS3uo_amFbTj-5" value="OA" style="rounded=1;whiteSpace=wrap;html=1;" vertex="1" parent="x4gcO5bAAS3uo_amFbTj-3">
          <mxGeometry x="678" y="27.5" width="110" height="45" as="geometry" />
        </mxCell>
        <mxCell id="x4gcO5bAAS3uo_amFbTj-6" value="业务层" style="swimlane;horizontal=0;" vertex="1" parent="1">
          <mxGeometry x="39" y="238" width="1051" height="270" as="geometry" />
        </mxCell>
        <mxCell id="x4gcO5bAAS3uo_amFbTj-9" value="合规模块" style="swimlane;fillColor=#d5e8d4;strokeColor=#82b366;" vertex="1" parent="x4gcO5bAAS3uo_amFbTj-6">
          <mxGeometry x="40" y="10" width="669" height="240" as="geometry" />
        </mxCell>
        <mxCell id="x4gcO5bAAS3uo_amFbTj-61" value="业务送审" style="swimlane;fillColor=#d5e8d4;strokeColor=#82b366;swimlaneFillColor=#D5E8D4;" vertex="1" parent="x4gcO5bAAS3uo_amFbTj-9">
          <mxGeometry x="16" y="30" width="184" height="190" as="geometry" />
        </mxCell>
        <mxCell id="x4gcO5bAAS3uo_amFbTj-62" value="添加直播间" style="rounded=1;whiteSpace=wrap;html=1;" vertex="1" parent="x4gcO5bAAS3uo_amFbTj-61">
          <mxGeometry x="6" y="34" width="66" height="30" as="geometry" />
        </mxCell>
        <mxCell id="x4gcO5bAAS3uo_amFbTj-63" value="批量添加直播间" style="rounded=1;whiteSpace=wrap;html=1;" vertex="1" parent="x4gcO5bAAS3uo_amFbTj-61">
          <mxGeometry x="86" y="34" width="66" height="30" as="geometry" />
        </mxCell>
        <mxCell id="x4gcO5bAAS3uo_amFbTj-64" value="查询直播间" style="rounded=1;whiteSpace=wrap;html=1;" vertex="1" parent="x4gcO5bAAS3uo_amFbTj-61">
          <mxGeometry x="98" y="80" width="66" height="30" as="geometry" />
        </mxCell>
        <mxCell id="x4gcO5bAAS3uo_amFbTj-65" value="我的直播数据" style="rounded=1;whiteSpace=wrap;html=1;" vertex="1" parent="x4gcO5bAAS3uo_amFbTj-61">
          <mxGeometry x="9" y="80" width="81" height="30" as="geometry" />
        </mxCell>
        <mxCell id="x4gcO5bAAS3uo_amFbTj-66" value="修改直播间资料" style="rounded=1;whiteSpace=wrap;html=1;" vertex="1" parent="x4gcO5bAAS3uo_amFbTj-61">
          <mxGeometry x="5" y="140" width="97" height="30" as="geometry" />
        </mxCell>
        <mxCell id="x4gcO5bAAS3uo_amFbTj-67" value="合规审核" style="swimlane;fillColor=#d5e8d4;strokeColor=#82b366;swimlaneFillColor=#D5E8D4;" vertex="1" parent="x4gcO5bAAS3uo_amFbTj-9">
          <mxGeometry x="219" y="30" width="181" height="190" as="geometry" />
        </mxCell>
        <mxCell id="x4gcO5bAAS3uo_amFbTj-68" value="查询待审核列表" style="rounded=1;whiteSpace=wrap;html=1;" vertex="1" parent="x4gcO5bAAS3uo_amFbTj-67">
          <mxGeometry x="8" y="35" width="66" height="30" as="geometry" />
        </mxCell>
        <mxCell id="x4gcO5bAAS3uo_amFbTj-69" value="资料审核" style="rounded=1;whiteSpace=wrap;html=1;" vertex="1" parent="x4gcO5bAAS3uo_amFbTj-67">
          <mxGeometry x="87" y="35" width="66" height="30" as="geometry" />
        </mxCell>
        <mxCell id="x4gcO5bAAS3uo_amFbTj-70" value="资料批注" style="rounded=1;whiteSpace=wrap;html=1;" vertex="1" parent="x4gcO5bAAS3uo_amFbTj-67">
          <mxGeometry x="87" y="80" width="66" height="30" as="geometry" />
        </mxCell>
        <mxCell id="x4gcO5bAAS3uo_amFbTj-71" value="审核提交" style="rounded=1;whiteSpace=wrap;html=1;" vertex="1" parent="x4gcO5bAAS3uo_amFbTj-67">
          <mxGeometry x="8" y="75" width="66" height="30" as="geometry" />
        </mxCell>
        <mxCell id="x4gcO5bAAS3uo_amFbTj-72" value="公共功能" style="swimlane;fillColor=#d5e8d4;strokeColor=#82b366;swimlaneFillColor=#D5E8D4;" vertex="1" parent="x4gcO5bAAS3uo_amFbTj-9">
          <mxGeometry x="422" y="30" width="234" height="190" as="geometry" />
        </mxCell>
        <mxCell id="x4gcO5bAAS3uo_amFbTj-73" value="我的工作台" style="rounded=1;whiteSpace=wrap;html=1;" vertex="1" parent="x4gcO5bAAS3uo_amFbTj-72">
          <mxGeometry x="4" y="29" width="66" height="30" as="geometry" />
        </mxCell>
        <mxCell id="x4gcO5bAAS3uo_amFbTj-74" value="直播监控" style="rounded=1;whiteSpace=wrap;html=1;" vertex="1" parent="x4gcO5bAAS3uo_amFbTj-72">
          <mxGeometry x="84" y="29" width="66" height="30" as="geometry" />
        </mxCell>
        <mxCell id="x4gcO5bAAS3uo_amFbTj-75" value="标记打点管理" style="rounded=1;whiteSpace=wrap;html=1;" vertex="1" parent="x4gcO5bAAS3uo_amFbTj-72">
          <mxGeometry x="163" y="29" width="66" height="30" as="geometry" />
        </mxCell>
        <mxCell id="x4gcO5bAAS3uo_amFbTj-76" value="提交合规记录单" style="rounded=1;whiteSpace=wrap;html=1;" vertex="1" parent="x4gcO5bAAS3uo_amFbTj-72">
          <mxGeometry x="4" y="75" width="66" height="30" as="geometry" />
        </mxCell>
        <mxCell id="x4gcO5bAAS3uo_amFbTj-77" value="操作栏查询" style="rounded=1;whiteSpace=wrap;html=1;" vertex="1" parent="x4gcO5bAAS3uo_amFbTj-72">
          <mxGeometry x="84" y="75" width="66" height="30" as="geometry" />
        </mxCell>
        <mxCell id="x4gcO5bAAS3uo_amFbTj-78" value="查看合规记录单" style="rounded=1;whiteSpace=wrap;html=1;" vertex="1" parent="x4gcO5bAAS3uo_amFbTj-72">
          <mxGeometry x="163" y="75" width="66" height="30" as="geometry" />
        </mxCell>
        <mxCell id="x4gcO5bAAS3uo_amFbTj-79" value="代办查询接口" style="rounded=1;whiteSpace=wrap;html=1;" vertex="1" parent="x4gcO5bAAS3uo_amFbTj-72">
          <mxGeometry x="8" y="123" width="82" height="27" as="geometry" />
        </mxCell>
        <mxCell id="x4gcO5bAAS3uo_amFbTj-107" value="OA一键登录" style="rounded=1;whiteSpace=wrap;html=1;" vertex="1" parent="x4gcO5bAAS3uo_amFbTj-72">
          <mxGeometry x="99" y="123" width="82" height="27" as="geometry" />
        </mxCell>
        <mxCell id="x4gcO5bAAS3uo_amFbTj-106" value="认证和鉴权" style="rounded=1;whiteSpace=wrap;html=1;" vertex="1" parent="x4gcO5bAAS3uo_amFbTj-72">
          <mxGeometry x="7" y="157" width="82" height="27" as="geometry" />
        </mxCell>
        <mxCell id="x4gcO5bAAS3uo_amFbTj-80" value="文档服务" style="swimlane;fillColor=#A9C4EB;swimlaneFillColor=#A9C4EB;" vertex="1" parent="x4gcO5bAAS3uo_amFbTj-6">
          <mxGeometry x="726" y="10" width="109" height="240" as="geometry" />
        </mxCell>
        <mxCell id="x4gcO5bAAS3uo_amFbTj-81" value="文档预览" style="rounded=1;whiteSpace=wrap;html=1;" vertex="1" parent="x4gcO5bAAS3uo_amFbTj-80">
          <mxGeometry x="10" y="50" width="82" height="27" as="geometry" />
        </mxCell>
        <mxCell id="x4gcO5bAAS3uo_amFbTj-82" value="文档格式转换" style="rounded=1;whiteSpace=wrap;html=1;" vertex="1" parent="x4gcO5bAAS3uo_amFbTj-80">
          <mxGeometry x="10" y="101.5" width="82" height="27" as="geometry" />
        </mxCell>
        <mxCell id="x4gcO5bAAS3uo_amFbTj-83" value="文档管理" style="rounded=1;whiteSpace=wrap;html=1;" vertex="1" parent="x4gcO5bAAS3uo_amFbTj-80">
          <mxGeometry x="10" y="160" width="82" height="27" as="geometry" />
        </mxCell>
        <mxCell id="x4gcO5bAAS3uo_amFbTj-84" value="接口服务" style="swimlane;fillColor=#CCCCFF;swimlaneFillColor=#CCCCFF;" vertex="1" parent="x4gcO5bAAS3uo_amFbTj-6">
          <mxGeometry x="846" y="10" width="183" height="240" as="geometry" />
        </mxCell>
        <mxCell id="x4gcO5bAAS3uo_amFbTj-85" value="同步直播间数据到欢句云" style="rounded=1;whiteSpace=wrap;html=1;" vertex="1" parent="x4gcO5bAAS3uo_amFbTj-84">
          <mxGeometry x="10" y="39" width="140" height="31" as="geometry" />
        </mxCell>
        <mxCell id="x4gcO5bAAS3uo_amFbTj-86" value="从欢句云获取语音识别结果，保存并推送到Redis消息通道" style="rounded=1;whiteSpace=wrap;html=1;" vertex="1" parent="x4gcO5bAAS3uo_amFbTj-84">
          <mxGeometry x="9" y="80.5" width="160" height="38.5" as="geometry" />
        </mxCell>
        <mxCell id="x4gcO5bAAS3uo_amFbTj-87" value="保存直播监控视频" style="rounded=1;whiteSpace=wrap;html=1;" vertex="1" parent="x4gcO5bAAS3uo_amFbTj-84">
          <mxGeometry x="10" y="138" width="82" height="27" as="geometry" />
        </mxCell>
        <mxCell id="x4gcO5bAAS3uo_amFbTj-113" value="" style="group" vertex="1" connectable="0" parent="1">
          <mxGeometry x="39" y="554" width="1051" height="210" as="geometry" />
        </mxCell>
        <mxCell id="x4gcO5bAAS3uo_amFbTj-90" value="数据层" style="swimlane;horizontal=0;" vertex="1" parent="x4gcO5bAAS3uo_amFbTj-113">
          <mxGeometry width="1051" height="210" as="geometry" />
        </mxCell>
        <mxCell id="x4gcO5bAAS3uo_amFbTj-101" value="redis&lt;br&gt;" style="sketch=0;aspect=fixed;html=1;points=[];align=center;image;fontSize=12;image=img/lib/mscae/Cache_including_Redis.svg;" vertex="1" parent="x4gcO5bAAS3uo_amFbTj-90">
          <mxGeometry x="901.9660861594867" y="40" width="48.166819431714025" height="48.166819431714025" as="geometry" />
        </mxCell>
        <mxCell id="x4gcO5bAAS3uo_amFbTj-127" value="" style="endArrow=none;html=1;rounded=0;strokeColor=#000000;strokeWidth=1;elbow=vertical;entryX=0.536;entryY=0.006;entryDx=0;entryDy=0;entryPerimeter=0;dashed=1;" edge="1" parent="x4gcO5bAAS3uo_amFbTj-90" target="x4gcO5bAAS3uo_amFbTj-126">
          <mxGeometry width="50" height="50" relative="1" as="geometry">
            <mxPoint x="911.3162236480293" y="90" as="sourcePoint" />
            <mxPoint x="906.499541704858" y="116" as="targetPoint" />
          </mxGeometry>
        </mxCell>
        <mxCell id="x4gcO5bAAS3uo_amFbTj-92" value="" style="swimlane;startSize=0;dashed=1;swimlaneFillColor=#FFFFFF;" vertex="1" parent="x4gcO5bAAS3uo_amFbTj-113">
          <mxGeometry x="58.76351970669111" y="10" width="722.5022914757104" height="100" as="geometry" />
        </mxCell>
        <mxCell id="x4gcO5bAAS3uo_amFbTj-93" value="用户数据" style="rounded=1;whiteSpace=wrap;html=1;" vertex="1" parent="x4gcO5bAAS3uo_amFbTj-113">
          <mxGeometry x="74.1769019248396" y="40" width="63.580201649862516" height="30" as="geometry" />
        </mxCell>
        <mxCell id="x4gcO5bAAS3uo_amFbTj-94" value="配置数据" style="rounded=1;whiteSpace=wrap;html=1;" vertex="1" parent="x4gcO5bAAS3uo_amFbTj-113">
          <mxGeometry x="174.36388634280476" y="40" width="63.580201649862516" height="30" as="geometry" />
        </mxCell>
        <mxCell id="x4gcO5bAAS3uo_amFbTj-95" value="直播间申请单数据" style="rounded=1;whiteSpace=wrap;html=1;" vertex="1" parent="x4gcO5bAAS3uo_amFbTj-113">
          <mxGeometry x="270.6975252062328" y="40" width="105.96700274977086" height="30" as="geometry" />
        </mxCell>
        <mxCell id="x4gcO5bAAS3uo_amFbTj-96" value="语音识别数据" style="rounded=1;whiteSpace=wrap;html=1;" vertex="1" parent="x4gcO5bAAS3uo_amFbTj-113">
          <mxGeometry x="395.9312557286893" y="40" width="77.06691109074244" height="30" as="geometry" />
        </mxCell>
        <mxCell id="x4gcO5bAAS3uo_amFbTj-97" value="直播视频数据" style="rounded=1;whiteSpace=wrap;html=1;" vertex="1" parent="x4gcO5bAAS3uo_amFbTj-113">
          <mxGeometry x="501.89825847846015" y="40" width="77.06691109074244" height="30" as="geometry" />
        </mxCell>
        <mxCell id="x4gcO5bAAS3uo_amFbTj-98" value="文件资料" style="rounded=1;whiteSpace=wrap;html=1;" vertex="1" parent="x4gcO5bAAS3uo_amFbTj-113">
          <mxGeometry x="617.4986251145738" y="40" width="77.06691109074244" height="30" as="geometry" />
        </mxCell>
        <mxCell id="x4gcO5bAAS3uo_amFbTj-104" value="" style="outlineConnect=0;dashed=0;verticalLabelPosition=bottom;verticalAlign=top;align=center;html=1;shape=mxgraph.aws3.mysql_db_instance;fillColor=#2E73B8;gradientColor=none;" vertex="1" parent="x4gcO5bAAS3uo_amFbTj-113">
          <mxGeometry x="347.76443629697525" y="131" width="57.80018331805683" height="64.5" as="geometry" />
        </mxCell>
        <mxCell id="x4gcO5bAAS3uo_amFbTj-126" value="1.做为消息通道，直播监控获取语音识别结果；直播间变更异步通知；&lt;br&gt;2. 做为缓存，保存直播间临时状态，欢句云端连接信息等" style="shape=document;whiteSpace=wrap;html=1;boundedLbl=1;" vertex="1" parent="x4gcO5bAAS3uo_amFbTj-113">
          <mxGeometry x="783.1924839596701" y="115.5" width="211.9340054995417" height="84.5" as="geometry" />
        </mxCell>
        <mxCell id="x4gcO5bAAS3uo_amFbTj-119" value="" style="endArrow=classic;html=1;rounded=0;exitX=0.5;exitY=1;exitDx=0;exitDy=0;edgeStyle=elbowEdgeStyle;elbow=vertical;strokeWidth=3;" edge="1" parent="1" source="x4gcO5bAAS3uo_amFbTj-9" target="x4gcO5bAAS3uo_amFbTj-101">
          <mxGeometry width="50" height="50" relative="1" as="geometry">
            <mxPoint x="410" y="530" as="sourcePoint" />
            <mxPoint x="480" y="500" as="targetPoint" />
          </mxGeometry>
        </mxCell>
        <mxCell id="x4gcO5bAAS3uo_amFbTj-120" value="" style="endArrow=classic;html=1;rounded=0;elbow=vertical;strokeWidth=3;" edge="1" parent="1">
          <mxGeometry width="50" height="50" relative="1" as="geometry">
            <mxPoint x="965" y="488" as="sourcePoint" />
            <mxPoint x="966" y="590" as="targetPoint" />
          </mxGeometry>
        </mxCell>
        <mxCell id="x4gcO5bAAS3uo_amFbTj-124" value="" style="endArrow=classic;html=1;rounded=0;strokeColor=#000000;strokeWidth=3;elbow=vertical;" edge="1" parent="1">
          <mxGeometry width="50" height="50" relative="1" as="geometry">
            <mxPoint x="426" y="664" as="sourcePoint" />
            <mxPoint x="426" y="689" as="targetPoint" />
          </mxGeometry>
        </mxCell>
      </root>
    </mxGraphModel>
  </diagram>
</mxfile>
